Patient4_TMGait_0pt2_03_left_21_EMG.mot
version=1
nRows=23
nColumns=33
inDegrees=no
endheader
time	1LAddLong	2LGlutMax	3LGlutMed	4LIliopsoas	5LSemiMemb	6LBicFemLong	7LRecFem	8LVastMed	9LVastLat	10LGasMed	11LTibAnt	12lTibPost	13LPeroneusLong	14LSol	15LExtDigLong	16LFlexDigLong	17RAddLong	18RGlutMax	19RGlutMed	20RIliopsoas	21RSemiMemb	22RBicFemLong	23RRecFem	24RVastMed	25RVastLat	26RGasMed	27RTibAnt	28RTibPost	29RPeroneusLong	30RSol	31RExtDigLong	32RFlexDigLong
46.098	0.027008	-0.079498	0.033875	0.002441	0.012817	0.020447	-0.085907	0.006409	0.005798	-0.016174	0.010986	0.002747	-0.019379	0.004425	0.007019	0.014496	0.041046	-0.095062	-0.49667	-0.074158	0.02533	0.045624	0.6221	-0.85632	-0.075073	-0.010376	0.010071	-0.016937	-0.68207	0.024261	0.006714	-0.01297
46.099	-0.026398	-0.058746	-0.055237	0.00061	0.013885	0.000763	-0.28275	0.004883	0.003967	-0.006714	0.00885	-0.000458	-0.022583	-0.000305	0.006256	0.009918	0.040436	0.001068	-0.31815	-0.10941	0.26016	0.051575	0.62134	-1.2628	0.041504	0.000763	0.023041	-0.006256	-0.78262	-0.006866	0.000763	-0.006409
46.1	-0.013885	-0.010681	-0.045319	0.017548	0.019531	0.011902	-0.29327	0.006714	0.008545	-0.003357	-0.005188	0.001373	-0.012665	0.004883	-0.00473	0.010223	0.011597	0.018158	0.7457	-0.099945	0.17685	0.062408	0.44495	-1.2593	0.10407	0.009003	-0.012817	-0.004883	0.15915	-0.046844	-0.001526	-0.004578
46.101	-0.000916	-0.035706	-0.053864	0.031281	0.011749	-0.005188	-0.31738	0.009613	0.027161	-0.001831	-0.013885	-0.000763	-0.006256	0.007477	-0.018463	0.009918	-0.031891	-0.038757	0.33875	0.046387	0.014191	0.16632	0.26199	-0.68848	0.18143	0.014343	-0.020294	-0.006714	-0.1181	-0.14267	-0.000916	-0.006409
46.102	0.002136	-0.027161	-0.010681	-0.005951	0.017548	-0.003357	-0.32928	0.003815	0.026398	-0.021667	-0.020905	-0.005188	0.012512	-0.003967	-0.028687	0.010223	-0.036774	-0.083923	-0.25177	0.23285	-0.046692	0.19302	0.19272	-0.26901	0.14328	0.002136	0.03067	0	-0.34714	-0.072174	0.000458	-0.010376
46.103	0.005798	-0.010529	-0.006104	-0.014343	0.015259	0.004578	-0.31403	-0.002289	0.008392	0.002594	0.002594	-0.003967	-0.024719	-0.004272	0.00473	0.004883	-0.006104	0.011902	0.42954	0.20767	-0.001068	0.092773	0.087891	0.097198	-0.2272	-0.01358	0.005798	-0.005798	0.30395	0.000305	-0.006409	-0.012512
46.104	0.001678	-0.016632	0.014648	0.000305	0.018768	-0.008392	-0.25864	-0.004578	0.005035	0.002747	0.020599	-0.005188	-0.062256	-0.0177	0.038147	0.007477	-0.014038	0.009766	0.26337	-0.019836	-0.018768	0.023499	0.14984	-0.009155	-0.18265	-0.021362	0.019836	-0.00885	0.46616	0.00885	-0.007629	-0.011749
46.105	0.00351	-0.028229	0.029602	0.022736	0.019531	0.007172	-0.24536	-0.015564	0.020447	-0.008392	0.024109	0	-0.057526	-0.02121	0.0354	-0.001373	0.001984	0.002441	0.045013	-0.058136	0.026245	-0.044556	0.34698	-0.23636	-0.19012	-0.023956	-0.045319	-0.01236	0.37262	0.01236	-0.00061	-0.001984
46.106	0.005188	-0.023804	0.15854	0.02655	0.016174	-0.027161	-0.22629	-0.016022	0.030212	-0.018463	0.032806	-0.004578	-0.072784	-0.006409	0.010834	0.002441	0.055084	0.017548	-0.19073	0.044403	0.15228	-0.086212	0.53696	-0.39871	-0.44235	-0.006866	-0.019989	-0.014954	0.14435	0.052338	-0.006409	-0.003052
46.107	0.006866	0.002136	0.21713	0.020447	0.025787	-0.003815	-0.18814	-0.011902	0.027924	-0.013885	0.063782	-0.002594	-0.071411	-0.001831	-0.001068	-0.003357	0.13931	0.001221	-0.5864	0.12405	0.082703	-0.051422	0.62393	-0.41748	-0.21591	-0.017853	0.037384	-0.007172	-0.060272	0.10849	-0.001526	-0.003815
46.108	-0.006561	-0.027008	0.23499	0.006256	0.015717	0.004578	-0.16556	-0.010071	0.015717	-0.00885	0.079651	-0.002899	-0.056763	-0.021057	-0.006714	0.003662	0.16022	-0.068207	0.87479	-0.040894	-0.15991	0.044861	0.41321	-0.37445	-0.1062	-0.018921	0.053406	-0.005646	0.060883	0.10895	-0.002136	0
46.109	0.005798	-0.087585	0.11169	-0.009766	0.014343	-0.012665	-0.17975	-0.010223	0.015106	0.009613	0.046539	-0.005951	-0.04364	-0.036926	-0.013123	0.003662	0.081024	-0.091705	1.2234	-0.13977	-0.39764	0.028687	0.15274	-0.052032	-0.1355	-0.009766	0.017548	-0.006104	-0.028839	0.029449	-0.00885	-0.002594
46.11	0.000916	-0.043182	0.070648	-0.008087	0.001831	-0.01236	-0.15732	-0.011597	0.014801	0.006409	-0.05127	-0.001373	-0.033417	-0.014648	-0.008698	0.016785	0.020142	-0.012054	-0.001373	-0.12161	-0.2861	-0.22736	-0.014801	0.36804	-0.27893	-0.000916	-0.084534	-0.007629	0.47058	-0.062866	-0.001984	-0.013275
46.111	0.000916	-0.045166	0.038757	0.036011	0.009308	0.004425	-0.050201	-0.007019	0.000458	0.01297	-0.02182	-0.002594	-0.053711	0.000458	0.001221	0.002747	-0.010376	-0.036316	-0.35889	-0.049286	-0.17181	-0.28427	-0.25406	0.75333	-0.28397	0.001526	-0.04715	-0.012054	-0.35004	-0.04425	-0.000458	-0.007477
46.112	0.00473	-0.043488	0.001831	0.054321	0.0177	-0.015411	-0.023193	0.003662	-0.002747	0.026245	0.033722	0.006866	-0.060272	-0.020142	0.004578	0.008087	-0.006866	-0.041351	-0.7814	0.085297	-0.32562	0.028381	-0.3656	0.77438	-0.086823	-0.003662	-0.006409	-0.009918	-1.3095	-0.019684	-0.002747	-0.010223
46.113	-0.002899	-0.044556	0.005798	0.044098	0.016174	0.005646	0.004425	-0.00061	-0.004578	-0.001373	0.046692	-0.000458	-0.058441	-0.045471	-0.004272	0.005951	-0.079041	-0.016937	-0.16663	0.013123	-0.016327	0.14862	-0.41077	0.49713	-0.1265	-0.012817	0.12634	-0.005035	-0.29892	0.015869	-0.003815	-0.01709
46.114	0.001526	-0.006561	0.019073	0.024567	0.011902	-0.019684	0.002899	0.004883	-0.005951	-0.016327	0.036011	-0.003815	-0.035248	0.012665	-0.007629	0.014954	-0.10681	0.063629	0.56229	-0.084686	-0.15823	0.073853	-0.457	0.40939	-0.19943	0.002594	-0.006561	0.000153	2.198	-0.000916	-0.001221	-0.012207
46.115	0.007935	-0.028839	0.024261	0.008087	0.014191	-0.008545	0.029144	0.00351	-0.001221	-0.002441	-0.083466	-0.005341	0.016632	-0.000916	-0.019989	0.011444	-0.035095	0.073395	0.5249	-0.026703	-0.50262	-0.11322	-0.5545	0.29694	0.072327	0.011902	-0.093689	-0.007019	0.79239	-0.044098	-0.002289	0
46.116	0.004425	-0.053711	0.015106	0.012817	0.014954	-0.021667	0.022888	0.005188	0.009918	-0.005646	-0.052338	-0.003662	-0.019989	0.026398	-0.002594	0.012207	-0.059357	0.005493	-0.023041	0.088806	-0.12253	-0.19226	-0.65018	-0.056152	0.20325	0.007172	0.027618	-0.00351	-0.81833	-0.18021	-0.002594	-0.010681
46.117	0.002747	-0.068817	-0.014191	0.00473	0.007019	-0.035706	0.038147	0.006561	0.001526	0.007782	-0.015717	-0.009308	-0.050201	0.010834	-0.020905	-0.006409	-0.090637	-0.056305	-0.17487	0.058594	0.29297	-0.17349	-0.36316	-0.41351	0.093536	0.007324	0.011444	-0.004272	-0.94086	-0.21103	0.000305	-0.01709
46.118	0.001221	-0.062714	-0.050659	0.014801	0.015259	-0.037842	0.033417	0.007782	0.001373	0.005341	-0.026855	-0.003815	-0.042725	-0.012054	-0.02594	-0.01236	-0.028534	-0.086975	-0.10056	-0.017242	0.51926	-0.10788	0.07019	-0.38757	-0.20386	-0.000153	-0.026245	-0.006409	-0.8226	-0.064087	-0.001831	-0.005798
46.119	0.003662	-0.045013	-0.068359	0.024414	0.014343	0.004425	0.050659	0.007019	0.002441	0.016479	0.004425	0.003662	-0.039673	0	-0.026245	0.00824	0.034637	-0.091705	-0.3154	-0.046387	0.2359	-0.084839	0.35629	-0.17548	-0.32516	0.007019	-0.005035	-0.003204	-0.93033	-0.058594	-0.004272	-0.006561
46.12	0.002899	-0.056915	-0.069122	0.027008	0.016785	-0.006409	0.037384	0.003815	0.005798	0.005646	0.058136	-0.010529	-0.054169	0.008392	0.027466	0.015717	0.023193	-0.012054	-0.49606	-0.068817	0.037537	0.018158	0.50552	-0.29388	-0.22827	0.010071	0.024261	-0.009003	0.03952	0.087433	-0.001526	-0.013275
